<svg width="512" height="512" viewBox="0 0 512 512" fill="none" xmlns="http://www.w3.org/2000/svg">
<g clip-path="url(#clip0_6_14)">
<path fill-rule="evenodd" clip-rule="evenodd" d="M353.907 45.7907C324.895 73.513 316.288 90.7878 316.214 121.439C316.163 142.205 322.936 172.8 327.585 172.8C328.556 172.8 331.341 161.411 333.778 147.492C336.215 133.573 339.889 120.038 341.942 117.412C345.38 113.021 345.521 113.254 343.718 120.32C340.629 132.439 341.307 178.609 344.594 179.712C348.887 181.153 374.741 153.667 381.133 140.864C389.325 124.465 390.487 108.012 385.226 82.9491C382.746 71.1194 379.438 53.376 377.877 43.52L375.04 25.6L353.907 45.7907ZM434.291 82.7341C429.926 110.031 402.877 144.115 353.234 184.878C300.506 228.173 285.461 255.16 287.178 303.365C287.631 316.042 287.424 326.38 286.72 326.341C286.016 326.303 275.443 313.339 263.224 297.536C245.22 274.243 137.726 137.618 116.111 110.554L110.623 103.68H56.5914C25.3876 103.68 2.56006 104.676 2.56006 106.038C2.56006 107.333 6.01606 109.061 10.2401 109.878C14.4641 110.692 21.2404 111.997 25.3005 112.778C29.3581 113.556 37.4145 118.249 43.2026 123.203C61.714 139.046 61.7114 139.016 60.8845 301.102L60.1601 442.88L54.1645 453.34C46.5357 466.647 31.3472 476.521 15.0529 478.764C7.18597 479.844 2.68037 481.641 3.28709 483.459C4.65413 487.562 130.998 487.647 132.365 483.543C132.913 481.905 128.806 479.964 122.744 478.996C102.487 475.756 89.6589 466.772 80.3098 449.28C75.8196 440.881 75.4791 431.419 74.8596 298.24L74.1991 156.16L79.9796 162.755C87.8925 171.784 145.362 243.425 190.717 300.8C324.365 469.862 339.062 487.68 344.896 487.68C350.705 487.68 350.72 487.572 350.72 448C350.72 426.176 351.606 408.32 352.689 408.32C353.772 408.32 362.698 411.699 372.529 415.828C390.38 423.327 422.61 429.507 414.72 423.918C412.608 422.423 409.119 421.181 406.968 421.158C397.376 421.064 366.049 402.947 352.353 389.576C331.868 369.574 324.114 351.854 324.155 325.12C324.211 286.318 335.852 263.148 376.143 221.622C400.102 196.931 406.387 188.641 417.382 167.237C424.517 153.349 432.015 136.535 434.045 129.874C438.902 113.948 441.853 76.7693 438.428 74.6547C436.936 73.7306 435.185 77.1533 434.291 82.7341ZM458.268 124.8C458.284 125.153 460.104 131.2 462.313 138.24C465.065 147.005 466.278 160.507 466.163 181.071C465.994 210.772 466.076 211.2 473.533 219.692C477.681 224.415 485.727 231.506 491.418 235.448C497.106 239.391 501.76 243.648 501.76 244.908C501.76 246.167 497.728 250.737 492.8 255.063C484.388 262.449 480.996 270.08 486.126 270.08C490.831 270.08 491.523 278.633 487.204 283.407C483.428 287.58 483.313 288.653 486.436 290.58C489.495 292.472 489.196 293.829 484.626 298.744C480.11 303.601 479.386 306.742 480.517 316.547C482.701 335.506 478.938 336.361 421.025 330.035C401.262 327.877 382.467 335.214 371.149 349.507C360.417 363.054 361.638 367.524 372.9 355.927C389.053 339.295 403.215 336.34 440.755 341.77C475.446 346.788 493.448 337.935 490.363 317.373C489.07 308.739 489.741 306.007 494.139 302.026C497.838 298.678 499.031 295.355 498.002 291.259C497.185 288 497.787 282.959 499.343 280.054C501.599 275.84 501.233 273.741 497.539 269.658C493.069 264.719 493.071 264.448 497.623 261.901C505.285 257.613 512 249.907 512 245.402C512 243.092 507.753 237.622 502.561 233.242C497.372 228.864 488.735 221.1 483.369 215.987L473.613 206.694L475.244 187.402C476.938 167.375 474.537 152.745 466.519 134.239C464.118 128.696 461.271 124.16 460.196 124.16C459.121 124.16 458.253 124.447 458.268 124.8ZM239.36 135.864C236.544 136.494 228.211 138.23 220.844 139.72C213.476 141.21 206.858 143.38 206.139 144.543C204.096 147.85 244.534 186.189 257.142 192.896C265.395 197.286 272.604 198.912 283.812 198.912C299.402 198.912 317.44 194.575 317.44 190.825C317.44 187.469 301.023 175.954 286.328 169.004C276.654 164.429 274.893 162.952 280.32 163.963C284.544 164.754 295.201 168.73 304 172.805C312.801 176.878 320 179.244 320 178.063C320 173.102 296.504 150.326 284.838 143.977C272.573 137.3 250.514 133.366 239.36 135.864ZM445.596 211.643C442.161 212.915 435.825 213.189 431.516 212.257C423.849 210.596 423.777 210.67 428.229 215.636C431.859 219.689 435.423 220.559 445.873 219.948C453.074 219.523 459.986 218.158 461.233 216.911C464.97 213.174 452.662 209.029 445.596 211.643Z" fill="#6B8548"/>
</g>
<defs>
<clipPath id="clip0_6_14">
<rect width="512" height="512" fill="white"/>
</clipPath>
</defs>
</svg>
